<svg xmlns="http://www.w3.org/2000/svg" viewBox="0 0 320 980" font-family="ui-monospace, 'Cascadia Code', 'Fira Mono', monospace">

  <!-- Page background -->
  <rect width="320" height="980" fill="#ffffff"/>

  <!-- ─── OUTER BORDER ───────────────────────────────────────────── -->
  <rect x="8" y="8" width="304" height="952" fill="none" stroke="#aaaaaa" stroke-width="1.5" rx="3"/>

  <!-- ─── SECTION 1 — NAVIGATION ──────────────────────────────────── -->
  <rect x="8" y="8" width="304" height="52" fill="#f4f4f4" stroke="#c0c0c0" stroke-width="1.5" rx="3"/>
  <rect x="20" y="20" width="64" height="26" fill="#d4d4d4" rx="3"/>
  <text x="52" y="36" text-anchor="middle" font-size="9" fill="#666">Logo</text>
  <line x1="276" y1="26" x2="298" y2="26" stroke="#666" stroke-width="2.5" stroke-linecap="round"/>
  <line x1="276" y1="33" x2="298" y2="33" stroke="#666" stroke-width="2.5" stroke-linecap="round"/>
  <line x1="276" y1="40" x2="298" y2="40" stroke="#666" stroke-width="2.5" stroke-linecap="round"/>

  <!-- ─── Mobile nav OPEN state ────────────────────────────────────── -->
  <rect x="8" y="60" width="304" height="88" fill="#1a1a2e" stroke="#c0c0c0" stroke-width="1"/>
  <text x="160" y="78" text-anchor="middle" font-size="8" fill="#888" letter-spacing="1">[ Mobile nav — open state ]</text>
  <rect x="60" y="84" width="200" height="14" fill="#2d2d4a" rx="2"/>
  <text x="160" y="95" text-anchor="middle" font-size="9" fill="#8899cc">About</text>
  <rect x="60" y="104" width="200" height="14" fill="#2d2d4a" rx="2"/>
  <text x="160" y="115" text-anchor="middle" font-size="9" fill="#8899cc">Projects</text>
  <rect x="60" y="124" width="200" height="14" fill="#2d2d4a" rx="2"/>
  <text x="160" y="135" text-anchor="middle" font-size="9" fill="#8899cc">Skills · Contact</text>

  <!-- ─── SECTION 2 — HERO ──────────────────────────────────────── -->
  <rect x="8" y="148" width="304" height="148" fill="#eef1fb" stroke="#c0c0c0" stroke-width="1"/>
  <text x="160" y="182" text-anchor="middle" font-size="14" fill="#1a1a1a" font-weight="bold">Hi, I'm Maya Chen</text>
  <text x="160" y="200" text-anchor="middle" font-size="9" fill="#555">Graphic Designer</text>
  <text x="160" y="214" text-anchor="middle" font-size="9" fill="#555">Creating visual identities that connect</text>
  <text x="160" y="226" text-anchor="middle" font-size="9" fill="#555">brands with people</text>
  <rect x="60" y="238" width="100" height="28" fill="#2d6ef0" rx="5"/>
  <text x="110" y="256" text-anchor="middle" font-size="9" fill="#fff">View My Work</text>
  <rect x="172" y="238" width="80" height="28" fill="none" stroke="#2d6ef0" stroke-width="1.5" rx="5"/>
  <text x="212" y="256" text-anchor="middle" font-size="9" fill="#2d6ef0">Contact</text>

  <!-- ─── VIEWPORT FOLD LINE (mobile: ~560px viewport - chrome = ~460px content) ── -->
  <line x1="8" y1="330" x2="312" y2="330" stroke="#f0a030" stroke-width="1.5" stroke-dasharray="5 3"/>
  <rect x="44" y="320" width="232" height="18" fill="#fff7e6" stroke="#f0a030" stroke-width="1" rx="3"/>
  <text x="160" y="333" text-anchor="middle" font-size="8" fill="#c07010" font-weight="bold">── approx. viewport fold · user scrolls ──</text>

  <!-- ─── SECTION 3 — ABOUT (stacked) ─────────────────────────────── -->
  <rect x="8" y="296" width="304" height="160" fill="#ffffff" stroke="#c0c0c0" stroke-width="1"/>
  <text x="160" y="316" text-anchor="middle" font-size="8" fill="#aaa" letter-spacing="2" font-weight="bold">A B O U T</text>
  <!-- Photo centred above text on mobile -->
  <rect x="104" y="324" width="112" height="84" fill="#e2e2e2" stroke="#c0c0c0" rx="4"/>
  <line x1="104" y1="324" x2="216" y2="408" stroke="#c0c0c0" stroke-width="1"/>
  <line x1="216" y1="324" x2="104" y2="408" stroke="#c0c0c0" stroke-width="1"/>
  <text x="160" y="370" text-anchor="middle" font-size="8" fill="#999">[photo]</text>
  <rect x="28" y="418" width="264" height="8" fill="#e0e0e0" rx="2"/>
  <rect x="28" y="432" width="240" height="8" fill="#e0e0e0" rx="2"/>
  <rect x="28" y="446" width="200" height="8" fill="#e0e0e0" rx="2"/>

  <!-- ─── SECTION 4 — PROJECTS (stacked cards) ─────────────────────── -->
  <rect x="8" y="456" width="304" height="176" fill="#f8f8f8" stroke="#c0c0c0" stroke-width="1"/>
  <text x="160" y="474" text-anchor="middle" font-size="8" fill="#aaa" letter-spacing="2" font-weight="bold">P R O J E C T S</text>
  <!-- Card 1 -->
  <rect x="24" y="480" width="272" height="38" fill="#fff" stroke="#d0d0d0" rx="4"/>
  <rect x="24" y="480" width="68" height="38" fill="#e2e2e2" rx="4"/>
  <rect x="24" y="500" width="28" height="18" fill="#e2e2e2"/>
  <text x="58" y="503" text-anchor="middle" font-size="7" fill="#999">[img]</text>
  <rect x="104" y="486" width="108" height="8" fill="#d4d4d4" rx="2"/>
  <rect x="104" y="500" width="152" height="7" fill="#e8e8e8" rx="2"/>
  <rect x="104" y="512" width="120" height="7" fill="#e8e8e8" rx="2"/>
  <!-- Card 2 -->
  <rect x="24" y="524" width="272" height="38" fill="#fff" stroke="#d0d0d0" rx="4"/>
  <rect x="24" y="524" width="68" height="38" fill="#e2e2e2" rx="4"/>
  <rect x="24" y="544" width="28" height="18" fill="#e2e2e2"/>
  <text x="58" y="547" text-anchor="middle" font-size="7" fill="#999">[img]</text>
  <rect x="104" y="530" width="108" height="8" fill="#d4d4d4" rx="2"/>
  <rect x="104" y="544" width="152" height="7" fill="#e8e8e8" rx="2"/>
  <rect x="104" y="556" width="120" height="7" fill="#e8e8e8" rx="2"/>
  <!-- Card 3 -->
  <rect x="24" y="568" width="272" height="38" fill="#fff" stroke="#d0d0d0" rx="4"/>
  <rect x="24" y="568" width="68" height="38" fill="#e2e2e2" rx="4"/>
  <rect x="24" y="588" width="28" height="18" fill="#e2e2e2"/>
  <text x="58" y="591" text-anchor="middle" font-size="7" fill="#999">[img]</text>
  <rect x="104" y="574" width="108" height="8" fill="#d4d4d4" rx="2"/>
  <rect x="104" y="588" width="152" height="7" fill="#e8e8e8" rx="2"/>
  <rect x="104" y="600" width="120" height="7" fill="#e8e8e8" rx="2"/>

  <!-- ─── SECTION 5 — SKILLS ────────────────────────────────────── -->
  <rect x="8" y="632" width="304" height="72" fill="#ffffff" stroke="#c0c0c0" stroke-width="1"/>
  <text x="160" y="650" text-anchor="middle" font-size="8" fill="#aaa" letter-spacing="2" font-weight="bold">S K I L L S</text>
  <!-- Row 1 -->
  <rect x="16" y="656" width="44" height="18" fill="#eef1fb" stroke="#b0c0e8" rx="9"/>
  <text x="38" y="669" text-anchor="middle" font-size="8" fill="#2d6ef0">HTML</text>
  <rect x="68" y="656" width="36" height="18" fill="#eef1fb" stroke="#b0c0e8" rx="9"/>
  <text x="86" y="669" text-anchor="middle" font-size="8" fill="#2d6ef0">CSS</text>
  <rect x="112" y="656" width="72" height="18" fill="#eef1fb" stroke="#b0c0e8" rx="9"/>
  <text x="148" y="669" text-anchor="middle" font-size="8" fill="#2d6ef0">JavaScript</text>
  <rect x="192" y="656" width="36" height="18" fill="#eef1fb" stroke="#b0c0e8" rx="9"/>
  <text x="210" y="669" text-anchor="middle" font-size="8" fill="#2d6ef0">Git</text>
  <!-- Row 2 -->
  <rect x="16" y="678" width="52" height="18" fill="#eef1fb" stroke="#b0c0e8" rx="9"/>
  <text x="42" y="691" text-anchor="middle" font-size="8" fill="#2d6ef0">Figma</text>
  <rect x="76" y="678" width="80" height="18" fill="#eef1fb" stroke="#b0c0e8" rx="9"/>
  <text x="116" y="691" text-anchor="middle" font-size="8" fill="#2d6ef0">Responsive</text>
  <rect x="164" y="678" width="88" height="18" fill="#eef1fb" stroke="#b0c0e8" rx="9"/>
  <text x="208" y="691" text-anchor="middle" font-size="8" fill="#2d6ef0">Typography</text>

  <!-- ─── SECTION 6 — CONTACT — COMPLETE ──────────────────────────── -->
  <rect x="8" y="704" width="304" height="216" fill="#f8f8f8" stroke="#c0c0c0" stroke-width="1"/>
  <text x="160" y="724" text-anchor="middle" font-size="8" fill="#aaa" letter-spacing="2" font-weight="bold">C O N T A C T</text>
  <!-- Name field (full width on mobile) -->
  <rect x="24" y="732" width="272" height="26" fill="#fff" stroke="#c0c0c0" rx="3"/>
  <text x="38" y="749" font-size="8" fill="#bbb">Name *</text>
  <!-- Email field (full width on mobile) -->
  <rect x="24" y="764" width="272" height="26" fill="#fff" stroke="#c0c0c0" rx="3"/>
  <text x="38" y="781" font-size="8" fill="#bbb">Email address *</text>
  <!-- Message textarea (full width on mobile) -->
  <rect x="24" y="796" width="272" height="68" fill="#fff" stroke="#c0c0c0" rx="3"/>
  <text x="38" y="813" font-size="8" fill="#bbb">Message *</text>
  <!-- Send button (full width on mobile) -->
  <rect x="24" y="872" width="272" height="32" fill="#2d6ef0" rx="6"/>
  <text x="160" y="893" text-anchor="middle" font-size="10" fill="#fff" font-weight="bold">Send →</text>
  <!-- Error annotation -->
  <text x="24" y="912" font-size="7" fill="#d04040">✕ Inline error messages appear under each field</text>

  <!-- ─── FOOTER — COMPLETE ──────────────────────────────────────── -->
  <rect x="8" y="920" width="304" height="36" fill="#1a1a2e"/>
  <text x="160" y="943" text-anchor="middle" font-size="8" fill="#888">© 2025 Maya Chen</text>

  <!-- ─── TITLE ──────────────────────────────────────────────────── -->
  <text x="160" y="966" text-anchor="middle" font-size="7" fill="#bbb" letter-spacing="1">MOBILE WIREFRAME — 375px · Dashed line = approx. viewport fold</text>
</svg>
