<svg xmlns="http://www.w3.org/2000/svg" viewBox="0 0 320 740" font-family="ui-monospace, 'Cascadia Code', 'Fira Mono', monospace">

  <!-- Page background -->
  <rect width="320" height="740" fill="#ffffff"/>

  <!-- ─── OUTER BORDER ───────────────────────────────────────────── -->
  <rect x="8" y="8" width="304" height="722" fill="none" stroke="#aaaaaa" stroke-width="1.5" rx="3"/>

  <!-- ─── SECTION 1 — NAVIGATION ──────────────────────────────────── -->
  <rect x="8" y="8" width="304" height="52" fill="#f4f4f4" stroke="#c0c0c0" stroke-width="1.5" rx="3"/>
  <!-- Logo -->
  <rect x="20" y="20" width="64" height="26" fill="#d4d4d4" rx="3"/>
  <text x="52" y="36" text-anchor="middle" font-size="9" fill="#666">Logo</text>
  <!-- Hamburger icon (3 lines) -->
  <line x1="276" y1="26" x2="298" y2="26" stroke="#666" stroke-width="2.5" stroke-linecap="round"/>
  <line x1="276" y1="33" x2="298" y2="33" stroke="#666" stroke-width="2.5" stroke-linecap="round"/>
  <line x1="276" y1="40" x2="298" y2="40" stroke="#666" stroke-width="2.5" stroke-linecap="round"/>
  <text x="248" y="36" font-size="8" fill="#aaa">☰ menu</text>

  <!-- ─── Mobile nav OPEN state (annotation) ──────────────────────── -->
  <rect x="8" y="60" width="304" height="88" fill="#1a1a2e" stroke="#c0c0c0" stroke-width="1"/>
  <text x="164" y="78" text-anchor="middle" font-size="8" fill="#888" letter-spacing="1">[ Mobile nav — open state ]</text>
  <rect x="60" y="84" width="200" height="14" fill="#2d2d4a" rx="2"/>
  <text x="160" y="95" text-anchor="middle" font-size="9" fill="#8899cc">About</text>
  <rect x="60" y="104" width="200" height="14" fill="#2d2d4a" rx="2"/>
  <text x="160" y="115" text-anchor="middle" font-size="9" fill="#8899cc">Projects</text>
  <rect x="60" y="124" width="200" height="14" fill="#2d2d4a" rx="2"/>
  <text x="160" y="135" text-anchor="middle" font-size="9" fill="#8899cc">Skills · Contact</text>

  <!-- ─── SECTION 2 — HERO ──────────────────────────────────────── -->
  <rect x="8" y="148" width="304" height="148" fill="#eef1fb" stroke="#c0c0c0" stroke-width="1"/>
  <text x="160" y="182" text-anchor="middle" font-size="14" fill="#1a1a1a" font-weight="bold">Hi, I'm Maya Chen</text>
  <text x="160" y="200" text-anchor="middle" font-size="9" fill="#555">Graphic Designer</text>
  <text x="160" y="214" text-anchor="middle" font-size="9" fill="#555">Creating visual identities that connect</text>
  <text x="160" y="226" text-anchor="middle" font-size="9" fill="#555">brands with people</text>
  <rect x="60" y="238" width="100" height="28" fill="#2d6ef0" rx="5"/>
  <text x="110" y="256" text-anchor="middle" font-size="9" fill="#fff">View My Work</text>
  <rect x="172" y="238" width="80" height="28" fill="none" stroke="#2d6ef0" stroke-width="1.5" rx="5"/>
  <text x="212" y="256" text-anchor="middle" font-size="9" fill="#2d6ef0">Contact</text>

  <!-- ─── SECTION 3 — ABOUT (stacked) ─────────────────────────────── -->
  <rect x="8" y="296" width="304" height="144" fill="#ffffff" stroke="#c0c0c0" stroke-width="1"/>
  <text x="160" y="316" text-anchor="middle" font-size="8" fill="#aaa" letter-spacing="2" font-weight="bold">A B O U T</text>
  <!-- Photo centred above text on mobile -->
  <rect x="104" y="324" width="112" height="80" fill="#e2e2e2" stroke="#c0c0c0" rx="56"/><!-- circle crop -->
  <line x1="104" y1="324" x2="216" y2="404" stroke="#c0c0c0" stroke-width="1"/>
  <line x1="216" y1="324" x2="104" y2="404" stroke="#c0c0c0" stroke-width="1"/>
  <text x="160" y="368" text-anchor="middle" font-size="8" fill="#999">[photo]</text>
  <!-- Text lines -->
  <rect x="28" y="412" width="264" height="7" fill="#e0e0e0" rx="2"/>
  <rect x="28" y="425" width="240" height="7" fill="#e0e0e0" rx="2"/>

  <!-- ─── SECTION 4 — PROJECTS (stacked cards) ─────────────────────── -->
  <rect x="8" y="440" width="304" height="136" fill="#f8f8f8" stroke="#c0c0c0" stroke-width="1"/>
  <text x="160" y="458" text-anchor="middle" font-size="8" fill="#aaa" letter-spacing="2" font-weight="bold">P R O J E C T S</text>
  <!-- Card 1 -->
  <rect x="24" y="464" width="272" height="36" fill="#fff" stroke="#d0d0d0" rx="4"/>
  <rect x="24" y="464" width="64" height="36" fill="#e2e2e2" rx="4"/>
  <rect x="24" y="480" width="24" height="20" fill="#e2e2e2"/><!-- cover right corner of img -->
  <text x="56" y="486" text-anchor="middle" font-size="7" fill="#999">[img]</text>
  <rect x="100" y="470" width="100" height="7" fill="#d4d4d4" rx="2"/>
  <rect x="100" y="483" width="148" height="6" fill="#e8e8e8" rx="2"/>
  <!-- Card 2 -->
  <rect x="24" y="506" width="272" height="36" fill="#fff" stroke="#d0d0d0" rx="4"/>
  <rect x="24" y="506" width="64" height="36" fill="#e2e2e2" rx="4"/>
  <rect x="24" y="522" width="24" height="20" fill="#e2e2e2"/>
  <text x="56" y="528" text-anchor="middle" font-size="7" fill="#999">[img]</text>
  <rect x="100" y="512" width="100" height="7" fill="#d4d4d4" rx="2"/>
  <rect x="100" y="525" width="148" height="6" fill="#e8e8e8" rx="2"/>
  <!-- Card 3 -->
  <rect x="24" y="548" width="272" height="20" fill="#d0d8f0" stroke="#d0d0d0" rx="4"/>
  <text x="160" y="562" text-anchor="middle" font-size="8" fill="#2d6ef0">+ 1 more project</text>

  <!-- ─── SECTION 5 — SKILLS ────────────────────────────────────── -->
  <rect x="8" y="576" width="304" height="64" fill="#ffffff" stroke="#c0c0c0" stroke-width="1"/>
  <text x="160" y="594" text-anchor="middle" font-size="8" fill="#aaa" letter-spacing="2" font-weight="bold">S K I L L S</text>
  <rect x="24" y="600" width="44" height="18" fill="#eef1fb" stroke="#b0c0e8" rx="9"/>
  <text x="46" y="613" text-anchor="middle" font-size="8" fill="#2d6ef0">HTML</text>
  <rect x="76" y="600" width="36" height="18" fill="#eef1fb" stroke="#b0c0e8" rx="9"/>
  <text x="94" y="613" text-anchor="middle" font-size="8" fill="#2d6ef0">CSS</text>
  <rect x="120" y="600" width="72" height="18" fill="#eef1fb" stroke="#b0c0e8" rx="9"/>
  <text x="156" y="613" text-anchor="middle" font-size="8" fill="#2d6ef0">JavaScript</text>
  <rect x="200" y="600" width="36" height="18" fill="#eef1fb" stroke="#b0c0e8" rx="9"/>
  <text x="218" y="613" text-anchor="middle" font-size="8" fill="#2d6ef0">Git</text>
  <rect x="24" y="622" width="52" height="18" fill="#eef1fb" stroke="#b0c0e8" rx="9"/>
  <text x="50" y="635" text-anchor="middle" font-size="8" fill="#2d6ef0">Figma</text>
  <rect x="84" y="622" width="80" height="18" fill="#eef1fb" stroke="#b0c0e8" rx="9"/>
  <text x="124" y="635" text-anchor="middle" font-size="8" fill="#2d6ef0">Responsive</text>

  <!-- ─── SECTION 6 — CONTACT (stacked form) ──────────────────────── -->
  <rect x="8" y="640" width="304" height="80" fill="#f8f8f8" stroke="#c0c0c0" stroke-width="1"/>
  <text x="160" y="658" text-anchor="middle" font-size="8" fill="#aaa" letter-spacing="2" font-weight="bold">C O N T A C T</text>
  <rect x="24" y="664" width="272" height="20" fill="#fff" stroke="#c0c0c0" rx="3"/>
  <text x="38" y="678" font-size="8" fill="#bbb">Name *</text>
  <rect x="24" y="688" width="272" height="20" fill="#fff" stroke="#c0c0c0" rx="3"/>
  <text x="38" y="702" font-size="8" fill="#bbb">Email address *</text>
  <!-- (message and send truncated — scroll implied) -->
  <text x="160" y="720" text-anchor="middle" font-size="8" fill="#aaa">↓ message · send button (scroll)</text>

  <!-- ─── TITLE ──────────────────────────────────────────────────── -->
  <text x="160" y="736" text-anchor="middle" font-size="7" fill="#bbb" letter-spacing="1">MOBILE WIREFRAME — 375px</text>
</svg>
