<svg xmlns="http://www.w3.org/2000/svg" viewBox="0 0 960 740" font-family="ui-monospace, 'Cascadia Code', 'Fira Mono', monospace">

  <!-- Page background -->
  <rect width="960" height="740" fill="#ffffff"/>

  <!-- ─── ANNOTATION RAIL (left) ─────────────────────────────────── -->
  <line x1="28" y1="0" x2="28" y2="740" stroke="#e0e0e0" stroke-dasharray="4 4"/>

  <!-- ─── SECTION 1 — NAVIGATION (y 0–60) ─────────────────────────── -->
  <rect x="40" y="8" width="912" height="52" fill="#f4f4f4" stroke="#c0c0c0" stroke-width="1.5" rx="3"/>
  <!-- Logo box -->
  <rect x="56" y="20" width="72" height="28" fill="#d4d4d4" rx="3"/>
  <text x="92" y="38" text-anchor="middle" font-size="10" fill="#666">Logo</text>
  <!-- Nav links -->
  <rect x="672" y="24" width="52" height="18" fill="#d4d4d4" rx="2"/>
  <text x="698" y="36" text-anchor="middle" font-size="9" fill="#555">About</text>
  <rect x="734" y="24" width="60" height="18" fill="#d4d4d4" rx="2"/>
  <text x="764" y="36" text-anchor="middle" font-size="9" fill="#555">Projects</text>
  <rect x="804" y="24" width="44" height="18" fill="#d4d4d4" rx="2"/>
  <text x="826" y="36" text-anchor="middle" font-size="9" fill="#555">Skills</text>
  <rect x="858" y="24" width="60" height="18" fill="#2d6ef0" rx="2"/>
  <text x="888" y="36" text-anchor="middle" font-size="9" fill="#fff">Contact</text>
  <!-- Label -->
  <text x="8" y="38" font-size="9" fill="#999" text-anchor="middle" transform="rotate(-90,8,38)">① NAV</text>

  <!-- ─── SECTION 2 — HERO (y 60–230) ─────────────────────────────── -->
  <rect x="40" y="60" width="912" height="170" fill="#eef1fb" stroke="#c0c0c0" stroke-width="1.5"/>
  <text x="480" y="112" text-anchor="middle" font-size="22" fill="#1a1a1a" font-weight="bold">Hi, I'm Maya Chen</text>
  <text x="480" y="138" text-anchor="middle" font-size="13" fill="#555">Graphic Designer · Creating visual identities that connect brands with people</text>
  <!-- Divider line under sub-heading -->
  <line x1="360" y1="150" x2="600" y2="150" stroke="#c8cfe8" stroke-width="1"/>
  <!-- CTA buttons -->
  <rect x="352" y="164" width="112" height="36" fill="#2d6ef0" rx="6"/>
  <text x="408" y="187" text-anchor="middle" font-size="11" fill="#fff">View My Work ↓</text>
  <rect x="480" y="164" width="112" height="36" fill="none" stroke="#2d6ef0" stroke-width="1.5" rx="6"/>
  <text x="536" y="187" text-anchor="middle" font-size="11" fill="#2d6ef0">Contact Me</text>
  <!-- Label -->
  <text x="8" y="148" font-size="9" fill="#999" text-anchor="middle" transform="rotate(-90,8,148)">② HERO</text>

  <!-- ─── SECTION 3 — ABOUT (y 230–390) ──────────────────────────── -->
  <rect x="40" y="230" width="912" height="160" fill="#ffffff" stroke="#c0c0c0" stroke-width="1.5"/>
  <text x="480" y="256" text-anchor="middle" font-size="9" fill="#aaa" letter-spacing="2.5" font-weight="bold">A B O U T</text>
  <!-- Photo placeholder -->
  <rect x="72" y="268" width="116" height="108" fill="#e2e2e2" stroke="#c0c0c0" rx="4"/>
  <line x1="72" y1="268" x2="188" y2="376" stroke="#c0c0c0" stroke-width="1"/>
  <line x1="188" y1="268" x2="72" y2="376" stroke="#c0c0c0" stroke-width="1"/>
  <text x="130" y="325" text-anchor="middle" font-size="9" fill="#999">[photo]</text>
  <!-- Text lines -->
  <rect x="224" y="268" width="340" height="10" fill="#e0e0e0" rx="2"/>
  <rect x="224" y="286" width="300" height="10" fill="#e0e0e0" rx="2"/>
  <rect x="224" y="304" width="320" height="10" fill="#e0e0e0" rx="2"/>
  <rect x="224" y="322" width="280" height="10" fill="#e0e0e0" rx="2"/>
  <rect x="224" y="340" width="240" height="10" fill="#e0e0e0" rx="2"/>
  <rect x="224" y="358" width="200" height="10" fill="#e0e0e0" rx="2"/>
  <!-- Label -->
  <text x="8" y="318" font-size="9" fill="#999" text-anchor="middle" transform="rotate(-90,8,318)">③ ABOUT</text>

  <!-- ─── SECTION 4 — PROJECTS (y 390–558) ───────────────────────── -->
  <rect x="40" y="390" width="912" height="168" fill="#f8f8f8" stroke="#c0c0c0" stroke-width="1.5"/>
  <text x="480" y="414" text-anchor="middle" font-size="9" fill="#aaa" letter-spacing="2.5" font-weight="bold">P R O J E C T S</text>
  <!-- Card 1 -->
  <rect x="64" y="424" width="258" height="120" fill="#fff" stroke="#d0d0d0" rx="6"/>
  <rect x="64" y="424" width="258" height="56" fill="#e2e2e2" rx="6"/>
  <rect x="64" y="468" width="258" height="12" fill="#e2e2e2" rx="0"/><!-- cover bottom corners-->
  <text x="193" y="456" text-anchor="middle" font-size="9" fill="#999">[ screenshot ]</text>
  <rect x="76" y="492" width="120" height="9" fill="#d4d4d4" rx="2"/>
  <rect x="76" y="508" width="180" height="7" fill="#e8e8e8" rx="2"/>
  <rect x="76" y="521" width="148" height="7" fill="#e8e8e8" rx="2"/>
  <!-- Card 2 -->
  <rect x="351" y="424" width="258" height="120" fill="#fff" stroke="#d0d0d0" rx="6"/>
  <rect x="351" y="424" width="258" height="56" fill="#e2e2e2" rx="6"/>
  <rect x="351" y="468" width="258" height="12" fill="#e2e2e2" rx="0"/>
  <text x="480" y="456" text-anchor="middle" font-size="9" fill="#999">[ screenshot ]</text>
  <rect x="363" y="492" width="120" height="9" fill="#d4d4d4" rx="2"/>
  <rect x="363" y="508" width="180" height="7" fill="#e8e8e8" rx="2"/>
  <rect x="363" y="521" width="148" height="7" fill="#e8e8e8" rx="2"/>
  <!-- Card 3 -->
  <rect x="638" y="424" width="258" height="120" fill="#fff" stroke="#d0d0d0" rx="6"/>
  <rect x="638" y="424" width="258" height="56" fill="#e2e2e2" rx="6"/>
  <rect x="638" y="468" width="258" height="12" fill="#e2e2e2" rx="0"/>
  <text x="767" y="456" text-anchor="middle" font-size="9" fill="#999">[ screenshot ]</text>
  <rect x="650" y="492" width="120" height="9" fill="#d4d4d4" rx="2"/>
  <rect x="650" y="508" width="180" height="7" fill="#e8e8e8" rx="2"/>
  <rect x="650" y="521" width="148" height="7" fill="#e8e8e8" rx="2"/>
  <!-- Label -->
  <text x="8" y="478" font-size="9" fill="#999" text-anchor="middle" transform="rotate(-90,8,478)">④ PROJECTS</text>

  <!-- ─── SECTION 5 — SKILLS (y 558–624) ─────────────────────────── -->
  <rect x="40" y="558" width="912" height="66" fill="#ffffff" stroke="#c0c0c0" stroke-width="1.5"/>
  <text x="480" y="580" text-anchor="middle" font-size="9" fill="#aaa" letter-spacing="2.5" font-weight="bold">S K I L L S</text>
  <!-- Skill pills -->
  <rect x="196" y="588" width="52" height="20" fill="#eef1fb" stroke="#b0c0e8" rx="10"/>
  <text x="222" y="602" text-anchor="middle" font-size="9" fill="#2d6ef0">HTML</text>
  <rect x="258" y="588" width="44" height="20" fill="#eef1fb" stroke="#b0c0e8" rx="10"/>
  <text x="280" y="602" text-anchor="middle" font-size="9" fill="#2d6ef0">CSS</text>
  <rect x="312" y="588" width="84" height="20" fill="#eef1fb" stroke="#b0c0e8" rx="10"/>
  <text x="354" y="602" text-anchor="middle" font-size="9" fill="#2d6ef0">JavaScript</text>
  <rect x="406" y="588" width="44" height="20" fill="#eef1fb" stroke="#b0c0e8" rx="10"/>
  <text x="428" y="602" text-anchor="middle" font-size="9" fill="#2d6ef0">Git</text>
  <rect x="460" y="588" width="88" height="20" fill="#eef1fb" stroke="#b0c0e8" rx="10"/>
  <text x="504" y="602" text-anchor="middle" font-size="9" fill="#2d6ef0">Figma</text>
  <rect x="558" y="588" width="96" height="20" fill="#eef1fb" stroke="#b0c0e8" rx="10"/>
  <text x="606" y="602" text-anchor="middle" font-size="9" fill="#2d6ef0">Responsive</text>
  <rect x="664" y="588" width="100" height="20" fill="#eef1fb" stroke="#b0c0e8" rx="10"/>
  <text x="714" y="602" text-anchor="middle" font-size="9" fill="#2d6ef0">Typography</text>
  <!-- Label -->
  <text x="8" y="594" font-size="9" fill="#999" text-anchor="middle" transform="rotate(-90,8,594)">⑤ SKILLS</text>

  <!-- ─── SECTION 6 — CONTACT (y 624–700) ──────────────────────────── -->
  <rect x="40" y="624" width="912" height="100" fill="#f8f8f8" stroke="#c0c0c0" stroke-width="1.5"/>
  <text x="480" y="648" text-anchor="middle" font-size="9" fill="#aaa" letter-spacing="2.5" font-weight="bold">C O N T A C T</text>
  <!-- Form fields row 1 -->
  <rect x="148" y="658" width="192" height="26" fill="#fff" stroke="#c0c0c0" rx="3"/>
  <text x="164" y="675" font-size="9" fill="#bbb">Name *</text>
  <rect x="352" y="658" width="256" height="26" fill="#fff" stroke="#c0c0c0" rx="3"/>
  <text x="368" y="675" font-size="9" fill="#bbb">Email address *</text>
  <!-- Message textarea -->
  <rect x="148" y="692" width="460" height="20" fill="#fff" stroke="#c0c0c0" rx="3"/>
  <text x="164" y="706" font-size="9" fill="#bbb">Message *</text>
  <!-- Send button -->
  <rect x="620" y="658" width="100" height="54" fill="#2d6ef0" rx="5"/>
  <text x="670" y="690" text-anchor="middle" font-size="11" fill="#fff" font-weight="bold">Send →</text>
  <!-- Label -->
  <text x="8" y="678" font-size="9" fill="#999" text-anchor="middle" transform="rotate(-90,8,678)">⑥ CONTACT</text>

  <!-- ─── FOOTER (y 700–740) ──────────────────────────────────────── -->
  <rect x="40" y="700" width="912" height="32" fill="#1a1a2e" rx="0"/>
  <text x="480" y="720" text-anchor="middle" font-size="9" fill="#888">© 2025 Maya Chen · Built with HTML, CSS &amp; JavaScript</text>

  <!-- ─── OUTER BORDER ───────────────────────────────────────────── -->
  <rect x="40" y="8" width="912" height="724" fill="none" stroke="#aaaaaa" stroke-width="1.5" rx="3"/>

  <!-- ─── TITLE ──────────────────────────────────────────────────── -->
  <text x="480" y="738" text-anchor="middle" font-size="8" fill="#bbb" letter-spacing="1">DESKTOP WIREFRAME — 1280px — All measurements proportional</text>
</svg>
